<?xml version="1.0" encoding="utf-8"?>
<!-- Generator: Adobe Illustrator 18.1.1, SVG Export Plug-In . SVG Version: 6.00 Build 0)  -->
<svg version="1.1" id="Layer_1" xmlns="http://www.w3.org/2000/svg" xmlns:xlink="http://www.w3.org/1999/xlink" x="0px" y="0px"
	 viewBox="0 0 145.3 78" enable-background="new 0 0 145.3 78" xml:space="preserve">
<g>
	<polygon fill="#1A1A1A" points="142.9,13.9 145.3,0 111.8,0 98,78 112,78 119.9,33.4 130.8,33.4 133.2,19.5 122.3,19.5 123.3,13.9 
			"/>
	<polygon fill="#1A1A1A" points="43.8,19.5 29.9,19.5 22,64.1 16.5,64.1 25.3,13.9 44.8,13.9 47.3,0 13.8,0 0,78 33.5,78 	"/>
	<polygon fill="#1A1A1A" points="105.9,0 92,0 86.4,32 80.8,32 86.4,0 72.4,0 64.2,46.7 62.1,58.6 75.1,58.6 76,58.6 78.2,46 
		83.8,46 81.6,58.6 81.6,58.6 80.5,65 78.2,78 92.2,78 	"/>
	<polygon fill="#1A1A1A" points="55.6,64.1 66.9,0 52.9,0 39.2,78 72.6,78 75.1,64.1 	"/>
</g>
</svg>
